HIERARCHY
ROOT Hips
{
  OFFSET 28.0063 39.5055 21.0673
  CHANNELS 6 Xposition Yposition Zposition Zrotation Xrotation Yrotation
  JOINT LeftHip
  {
    OFFSET 3.43 3.62798e-014 -8.79301e-012
    CHANNELS 6 Xposition Yposition Zposition Zrotation Xrotation Yrotation
    JOINT LeftKnee
    {
      OFFSET -1.06581e-014 -18.47 9.76996e-015
      CHANNELS 6 Xposition Yposition Zposition Zrotation Xrotation Yrotation
      JOINT LeftAnkle
      {
        OFFSET 3.87854e-012 -17.95 -4.13959e-012
        CHANNELS 6 Xposition Yposition Zposition Zrotation Xrotation Yrotation
        End Site
        {
          OFFSET 0 -3.12 0
        }
      }
    }
  }
  JOINT RightHip
  {
    OFFSET -3.43 2.76147e-013 1.18857e-012
    CHANNELS 6 Xposition Yposition Zposition Zrotation Xrotation Yrotation
    JOINT RightKnee
    {
      OFFSET 2.17336e-013 -18.47 8.04946e-013
      CHANNELS 6 Xposition Yposition Zposition Zrotation Xrotation Yrotation
      JOINT RightAnkle
      {
        OFFSET -3.96733e-012 -17.95 0
        CHANNELS 6 Xposition Yposition Zposition Zrotation Xrotation Yrotation
        End Site
        {
          OFFSET 0 -3.12 0
        }
      }
    }
  }
  JOINT Chest
  {
    OFFSET 2.47406e-012 4.57 1.72521e-013
    CHANNELS 6 Xposition Yposition Zposition Zrotation Xrotation Yrotation
    JOINT Chest2
    {
      OFFSET 3.55271e-015 6.57 -6.21725e-015
      CHANNELS 6 Xposition Yposition Zposition Zrotation Xrotation Yrotation
      JOINT LeftCollar
      {
        OFFSET 1.06 4.19 1.76
        CHANNELS 6 Xposition Yposition Zposition Zrotation Xrotation Yrotation
        JOINT LeftShoulder
        {
          OFFSET 5.81 5.61587e-013 -8.88178e-016
          CHANNELS 6 Xposition Yposition Zposition Zrotation Xrotation Yrotation
          JOINT LeftElbow
          {
            OFFSET -5.68434e-014 -12.08 -3.20035e-012
            CHANNELS 6 Xposition Yposition Zposition Zrotation Xrotation Yrotation
            JOINT LeftWrist
            {
              OFFSET 1.42109e-014 -9.82 -5.32907e-015
              CHANNELS 6 Xposition Yposition Zposition Zrotation Xrotation Yrotation
              End Site
              {
                OFFSET 0 -7.37 0
              }
            }
          }
        }
      }
      JOINT RightCollar
      {
        OFFSET -1.06 4.19 1.76
        CHANNELS 6 Xposition Yposition Zposition Zrotation Xrotation Yrotation
        JOINT RightShoulder
        {
          OFFSET -6.06 -2.83051e-012 -8.88178e-016
          CHANNELS 6 Xposition Yposition Zposition Zrotation Xrotation Yrotation
          JOINT RightElbow
          {
            OFFSET -2.84217e-014 -11.08 2.79018e-015
            CHANNELS 6 Xposition Yposition Zposition Zrotation Xrotation Yrotation
            JOINT RightWrist
            {
              OFFSET 7.10543e-015 -9.82 -2.66454e-015
              CHANNELS 6 Xposition Yposition Zposition Zrotation Xrotation Yrotation
              End Site
              {
                OFFSET 0 -7.14001 0
              }
            }
          }
        }
      }
      JOINT Neck
      {
        OFFSET 2.13163e-014 4.05 4.44089e-015
        CHANNELS 6 Xposition Yposition Zposition Zrotation Xrotation Yrotation
        JOINT Head
        {
          OFFSET -3.55271e-015 5.19 3.55271e-015
          CHANNELS 6 Xposition Yposition Zposition Zrotation Xrotation Yrotation
          End Site
          {
            OFFSET 0 4.14001 0
          }
        }
      }
    }
  }
}
MOTION
Frames:	11
Frame Time:	0.0333333
-54.0812 39.456 15.7192 3.00069 4.06491 107.666 3.43 1.10079e-013 -9.22548e-012 6.33884 -8.99685 11.0078 -1.06581e-014 -18.47 9.76996e-015 -7.33039 41.3443 13.0737 -4.88835e-013 -17.95 -2.48483e-012 -5.88153 -5.49767 -0.283964 -3.43 6.18662e-014 -1.87577e-013 0.0271607 -3.889 -6.79479 -2.99714e-013 -18.47 -7.3732e-013 -1.0519 20.9252 -20.3338 -1.59181e-011 -17.95 0 1.95861 -13.5069 0.231377 5.1429e-012 4.57 -4.93337e-013 -1.78585 6.27891 1.34603 3.55271e-015 6.57 -6.21725e-015 -1.73681 5.69179 1.07213 1.06 4.19 1.76 -15.4256 1.27802 -1.20896 5.81 -2.33716e-012 -8.88178e-016 41.4211 -6.12086 -17.3575 -5.68434e-014 -12.08 1.35902e-012 -23.2078 -58.0675 -54.7048 1.42109e-014 -9.82 -5.32907e-015 5.10294 8.82921 -0.394226 -1.06 4.19 1.76 24.2944 1.61823 1.06199 -6.06 -1.30127e-011 -8.88178e-016 -52.1246 2.82868 15.4538 -2.84217e-014 -11.08 -2.02402e-013 16.4403 -48.8318 42.3554 7.10543e-015 -9.82 -2.66454e-015 -3.85546 0.913216 0.0305904 2.13163e-014 4.05 4.44089e-015 4.28238 6.45196 -5.56801 -3.55271e-015 5.19 3.55271e-015 -1.21689 -7.45026 -4.50928 
-53.6275 39.5363 15.59 3.15454 4.81596 105.951 3.43 -3.38896e-014 -9.2499e-012 4.37022 -10.7463 9.5047 -1.06581e-014 -18.47 9.76996e-015 -7.28588 38.4274 16.0238 -4.86311e-013 -17.95 -2.49426e-012 -4.89344 -4.64899 -0.196318 -3.43 2.30661e-014 -9.29515e-014 -0.861391 -2.43143 -7.19114 -2.35244e-013 -18.47 -7.62214e-013 -1.07064 20.012 -17.9957 -1.58988e-011 -17.95 0 1.69364 -13.7913 0.205003 5.17497e-012 4.57 -5.19481e-013 -2.09336 6.94221 2.08343 3.55271e-015 6.57 -6.21725e-015 -2.08069 6.28637 1.74469 1.06 4.19 1.76 -14.9173 1.25504 -1.19893 5.81 -2.36828e-012 -8.88178e-016 41.3101 -4.41916 -16.9772 -5.68434e-014 -12.08 1.39926e-012 -23.0604 -56.7326 -54.8432 1.42109e-014 -9.82 -5.32907e-015 4.55156 8.98897 -0.358097 -1.06 4.19 1.76 24.1904 1.60383 1.01533 -6.06 -1.29841e-011 -8.88178e-016 -52.711 0.830493 14.8661 -2.84217e-014 -11.08 -1.82613e-013 15.9581 -48.4961 40.9234 7.10543e-015 -9.82 -2.66454e-015 -4.76672 0.792991 0.0330104 2.13163e-014 4.05 4.44089e-015 4.56375 6.21223 -4.93078 -3.55271e-015 5.19 3.55271e-015 -1.50589 -8.21129 -3.87478 
-53.18 39.5359 15.4378 3.12554 5.06053 104.461 3.43 -1.2175e-013 -9.27419e-012 2.61163 -11.2965 7.59147 -1.06581e-014 -18.47 9.76996e-015 -6.48696 32.257 18.8815 -4.8374e-013 -17.95 -2.50236e-012 -3.67885 -4.56069 -0.146318 -3.43 -1.483e-014 2.43099e-014 -1.38165 -1.78176 -7.34558 -1.68101e-013 -18.47 -7.86476e-013 -1.15838 20.0264 -16.4327 -1.58791e-011 -17.95 0 1.83394 -14.4243 0.232037 5.20649e-012 4.57 -5.45271e-013 -1.96929 7.40692 2.6964 3.55271e-015 6.57 -6.21725e-015 -2.02871 6.6976 2.33828 1.06 4.19 1.76 -15.3756 1.27963 -1.23726 5.81 -2.39767e-012 -8.88178e-016 42.137 -2.56701 -16.474 -5.68434e-014 -12.08 1.43785e-012 -23.382 -55.9398 -54.8595 1.42109e-014 -9.82 -5.32907e-015 3.81185 9.11578 -0.303631 -1.06 4.19 1.76 24.2368 1.60915 1.03104 -6.06 -1.29553e-011 -8.88178e-016 -54.0682 -0.918605 14.2585 -2.84217e-014 -11.08 -1.62835e-013 15.8334 -48.6467 39.7627 7.10543e-015 -9.82 -2.66454e-015 -5.31034 0.656253 0.030449 2.13163e-014 4.05 4.44089e-015 4.31948 5.71999 -4.19103 -3.55271e-015 5.19 3.55271e-015 -1.97736 -8.05451 -3.22029 
-52.6961 39.539 15.2703 2.8863 5.18455 103.174 3.43 -1.74097e-013 -9.29835e-012 0.967334 -12.142 5.55487 -1.06581e-014 -18.47 9.76996e-015 -5.63285 25.3037 23.1439 -4.81121e-013 -17.95 -2.50913e-012 -1.88022 -1.65794 -0.0413855 -3.43 -1.74305e-014 1.24956e-013 -1.8824 -1.10476 -7.55468 -9.82535e-014 -18.47 -8.10111e-013 -1.09978 19.7067 -14.9011 -1.58589e-011 -17.95 0 1.88681 -15.0053 0.248536 5.23745e-012 4.57 -5.70707e-013 -1.92874 7.66246 3.30629 3.55271e-015 6.57 -6.21725e-015 -2.05042 6.91606 2.91851 1.06 4.19 1.76 -15.1034 1.26323 -1.20128 5.81 -2.42532e-012 -8.88178e-016 42.1122 -0.43317 -16.0949 -5.68434e-014 -12.08 1.47482e-012 -23.2522 -55.0861 -55.6495 1.42109e-014 -9.82 -5.32907e-015 3.27585 9.54059 -0.273974 -1.06 4.19 1.76 24.2616 1.60933 1.02698 -6.06 -1.29262e-011 -8.88178e-016 -54.9318 -2.32895 13.6734 -2.84217e-014 -11.08 -1.43115e-013 15.4186 -48.6113 38.5926 7.10543e-015 -9.82 -2.66454e-015 -5.87033 0.494821 0.0253254 2.13163e-014 4.05 4.44089e-015 4.34447 5.31811 -3.39175 -3.55271e-015 5.19 3.55271e-015 -2.5162 -7.92992 -2.42253 
-52.1574 39.5292 15.0844 2.75953 5.23145 101.798 3.43 -3.02258e-014 -9.32237e-012 -0.329298 -11.8748 3.69015 -1.06581e-014 -18.47 9.76996e-015 -5.04287 16.985 23.2861 -4.78454e-013 -17.95 -2.51458e-012 0.320444 2.56936 0.00468812 -3.43 1.90681e-013 -1.26121e-013 -2.32537 -0.260895 -7.76316 -2.56706e-014 -18.47 -8.33125e-013 -1.07816 19.3316 -13.5045 -1.58382e-011 -17.95 0 2.05143 -15.5946 0.280963 5.26786e-012 4.57 -5.95791e-013 -1.94233 7.83772 4.01854 3.55271e-015 6.57 -6.21725e-015 -2.12874 7.05856 3.58386 1.06 4.19 1.76 -14.7112 1.24458 -1.186 5.81 -2.45123e-012 -8.88178e-016 42.0197 1.91509 -15.9062 -5.68434e-014 -12.08 1.51017e-012 -23.1213 -54.1624 -56.5963 1.42109e-014 -9.82 -5.32907e-015 3.17115 9.87932 -0.274046 -1.06 4.19 1.76 24.4092 1.61843 1.04034 -6.06 -1.28969e-011 -8.88178e-016 -55.5462 -3.23791 12.9641 -2.84217e-014 -11.08 -1.23502e-013 14.9543 -48.5885 37.722 7.10543e-015 -9.82 -2.66454e-015 -6.47513 0.292862 0.0166545 2.13163e-014 4.05 4.44089e-015 4.51449 5.19627 -2.49047 -3.55271e-015 5.19 3.55271e-015 -2.90952 -8.16819 -1.52108 
-51.5544 39.5232 14.8728 2.75266 5.0992 100.543 3.43 2.03726e-013 -9.34625e-012 -0.941953 -10.1143 2.19023 -1.06581e-014 -18.47 9.76996e-015 -4.856 7.92709 17.9193 -4.75739e-013 -17.95 -2.5187e-012 -1.31194 6.28663 0.0752142 -3.43 2.22378e-013 -1.32117e-014 -2.46695 1.11514 -7.80286 4.96792e-014 -18.47 -8.55522e-013 -1.22157 18.2883 -12.4035 -1.58171e-011 -17.95 0 2.37833 -15.9325 0.332855 5.29771e-012 4.57 -6.20525e-013 -1.83717 7.90735 4.67602 3.55271e-015 6.57 -6.21725e-015 -2.09652 7.10547 4.20416 1.06 4.19 1.76 -14.5094 1.23652 -1.18995 5.81 -2.47539e-012 -8.88178e-016 42.0922 4.13991 -15.4136 -5.68434e-014 -12.08 1.54391e-012 -23.0695 -53.6192 -53.9897 1.42109e-014 -9.82 -5.32907e-015 1.95427 10.0239 -0.172616 -1.06 4.19 1.76 24.4168 1.62321 1.06101 -6.06 -1.28673e-011 -8.88178e-016 -55.8061 -3.69858 12.3475 -2.84217e-014 -11.08 -1.04044e-013 14.5179 -48.5441 36.8426 7.10543e-015 -9.82 -2.66454e-015 -7.15605 0.134475 0.00874844 2.13163e-014 4.05 4.44089e-015 4.60173 5.30239 -1.62311 -3.55271e-015 5.19 3.55271e-015 -3.29373 -8.60357 -0.647723 
-50.9091 39.5105 14.6163 2.80984 5.06772 99.7238 3.43 -1.16684e-013 -9.37e-012 -1.68112 -8.36192 0.583662 -1.06581e-014 -18.47 9.76996e-015 -4.4683 1.12337 11.8834 -4.72976e-013 -17.95 -2.52149e-012 -2.94217 10.4825 0.268657 -3.43 -9.31477e-014 8.35443e-014 -2.84086 2.96094 -8.1152 1.27827e-013 -18.47 -8.77307e-013 -1.24748 16.9013 -11.0929 -1.57955e-011 -17.95 0 2.73936 -16.2636 0.391502 5.32702e-012 4.57 -6.44909e-013 -1.84693 7.89536 5.03672 3.55271e-015 6.57 -6.21725e-015 -2.13549 7.08282 4.54147 1.06 4.19 1.76 -14.2594 1.22615 -1.19165 5.81 -2.49778e-012 -8.88178e-016 42.2926 6.38969 -15.3232 -5.68434e-014 -12.08 1.57606e-012 -22.9717 -52.8268 -53.679 1.42109e-014 -9.82 -5.32907e-015 2.67526 10.4849 -0.245233 -1.06 4.19 1.76 24.3199 1.61866 1.05908 -6.06 -1.28375e-011 -8.88178e-016 -55.3116 -3.87119 11.8154 -2.84217e-014 -11.08 -8.47873e-014 13.9151 -48.2895 35.7864 7.10543e-015 -9.82 -2.66454e-015 -7.01844 -0.309884 -0.0189484 2.13163e-014 4.05 4.44089e-015 4.73222 5.55662 -0.884031 -3.55271e-015 5.19 3.55271e-015 -3.42138 -8.95824 0.116034 
-50.1738 39.4593 14.2952 3.18823 4.95052 98.9427 3.43 5.00027e-014 -9.39361e-012 -2.32256 -8.30827 -0.166713 -1.06581e-014 -18.47 9.76996e-015 -4.0422 1.24964 11.1171 -4.70165e-013 -17.95 -2.52294e-012 -3.66244 11.4848 0.370961 -3.43 -1.40499e-013 -1.24854e-013 -3.27911 5.24046 -8.67557 2.28259e-013 -18.47 -8.98486e-013 -1.09089 15.5058 -9.54241 -1.57735e-011 -17.95 0 3.08911 -16.7061 0.453569 5.35578e-012 4.57 -6.68946e-013 -1.76451 7.84981 5.31006 3.55271e-015 6.57 -6.21725e-015 -2.09055 7.02959 4.8058 1.06 4.19 1.76 -14.1708 1.21538 -1.13481 5.81 -2.51841e-012 -8.88178e-016 42.4476 8.57832 -15.1328 -5.68434e-014 -12.08 1.60663e-012 -22.6961 -52.0416 -53.7572 1.42109e-014 -9.82 -5.32907e-015 0.804861 10.2167 -0.0722518 -1.06 4.19 1.76 24.1255 1.61454 1.07843 -6.06 -1.28075e-011 -8.88178e-016 -54.5273 -3.45229 11.3349 -2.84217e-014 -11.08 -6.57806e-014 13.2504 -48.4273 34.6967 7.10543e-015 -9.82 -2.66454e-015 -7.655 -0.0338469 -0.00227889 2.13163e-014 4.05 4.44089e-015 4.80461 5.90594 -0.262658 -3.55271e-015 5.19 3.55271e-015 -3.4408 -8.99764 0.741148 
-49.3722 39.3602 13.9388 3.69271 4.59901 98.4011 3.43 1.52329e-013 -9.41708e-012 -2.74041 -7.80162 -0.0470173 -1.06581e-014 -18.47 9.76996e-015 -4.12394 2.67069 15.1095 -4.67305e-013 -17.95 -2.52306e-012 -1.26764 6.79362 0.0890992 -3.43 -1.12965e-014 -1.53752e-013 -3.44099 7.85258 -9.15744 2.98123e-013 -18.47 -9.19063e-013 -1.05144 13.9233 -8.27208 -1.5751e-011 -17.95 0 3.68357 -17.1547 0.556416 5.38399e-012 4.57 -6.92636e-013 -1.51972 7.62989 5.44748 3.55271e-015 6.57 -6.21725e-015 -1.89225 6.82091 4.95462 1.06 4.19 1.76 -14.3268 1.21494 -1.079 5.81 -2.53726e-012 -8.88178e-016 42.7253 10.7917 -14.9752 -5.68434e-014 -12.08 1.63564e-012 -22.5689 -51.5184 -54.9598 1.42109e-014 -9.82 -5.32907e-015 0.401967 9.87758 -0.0346479 -1.06 4.19 1.76 24.3906 1.62363 1.06813 -6.06 -1.27772e-011 -8.88178e-016 -54.7467 -2.63156 11.308 -2.84217e-014 -11.08 -4.70715e-014 13.0608 -48.7084 35.2672 7.10543e-015 -9.82 -2.66454e-015 -7.72906 0.113973 0.0077605 2.13163e-014 4.05 4.44089e-015 4.93886 6.33787 0.0448929 -3.55271e-015 5.19 3.55271e-015 -3.70062 -8.71236 1.15805 
-48.5374 39.2416 13.5618 4.44851 4.63534 97.7765 3.43 1.67296e-013 -9.44042e-012 -3.35697 -8.43873 -0.258429 -1.06581e-014 -18.47 9.76996e-015 -3.84873 7.75482 15.5065 -4.64396e-013 -17.95 -2.52184e-012 1.10054 2.69024 -0.035554 -3.43 2.32629e-013 -1.68974e-013 -3.96405 10.6392 -9.8663 4.30439e-015 -18.47 -9.39045e-013 -1.15366 12.5526 -6.77165 -1.5728e-011 -17.95 0 4.36312 -17.741 0.68049 5.41166e-012 4.57 -7.1598e-013 -1.58323 7.54397 5.58225 3.55271e-015 6.57 -6.21725e-015 -1.96644 6.74916 5.05484 1.06 4.19 1.76 -14.9629 1.22204 -0.932237 5.81 -2.55434e-012 -8.88178e-016 43.6421 12.5756 -15.4596 -5.68434e-014 -12.08 1.66309e-012 -22.9524 -51.4287 -55.3333 1.42109e-014 -9.82 -5.32907e-015 0.702372 10.5973 -0.0652146 -1.06 4.19 1.76 24.4851 1.62622 1.06158 -6.06 -1.27466e-011 -8.88178e-016 -54.4785 -1.56171 11.4977 -2.84217e-014 -11.08 -2.87079e-014 13.0648 -48.7792 35.9598 7.10543e-015 -9.82 -2.66454e-015 -7.90024 -0.556907 -0.0386237 2.13163e-014 4.05 4.44089e-015 4.88557 6.67796 0.252382 -3.55271e-015 5.19 3.55271e-015 -3.55901 -8.38521 1.32443 
-47.7824 39.2575 13.1981 5.09684 5.22447 97.1002 3.43 1.46459e-013 -9.46361e-012 -4.16233 -6.85549 -0.463854 -1.06581e-014 -18.47 9.76996e-015 -3.88626 7.82526 17.5371 -4.61438e-013 -17.95 -2.51928e-012 1.0118 3.1814 -0.0284839 -3.43 3.57132e-013 -1.79676e-013 -5.12422 12.5999 -10.9831 -3.25036e-014 -18.47 -9.58435e-013 -1.15211 12.2936 -4.9574 -1.57046e-011 -17.95 0 4.87319 -17.5508 0.753821 5.4388e-012 4.57 -7.38981e-013 -2.18792 7.70891 5.72819 3.55271e-015 6.57 -6.21725e-015 -2.52439 6.91945 5.09943 1.06 4.19 1.76 -15.9404 1.24454 -0.809364 5.81 -2.56962e-012 -8.88178e-016 45.1595 13.4754 -16.0471 -5.68434e-014 -12.08 1.68899e-012 -23.6544 -51.6721 -56.2894 1.42109e-014 -9.82 -5.32907e-015 1.07137 10.9627 -0.102743 -1.06 4.19 1.76 25.2498 1.65388 1.03949 -6.06 -1.27159e-011 -8.88178e-016 -54.6969 -0.839661 11.7749 -2.84217e-014 -11.08 -1.07374e-014 13.2135 -48.776 36.4434 7.10543e-015 -9.82 -2.66454e-015 -8.57223 -0.538599 -0.0401679 2.13163e-014 4.05 4.44089e-015 4.95743 6.54158 0.240296 -3.55271e-015 5.19 3.55271e-015 -3.2091 -8.04648 1.24014 
